<svg width="170" height="22" viewBox="0 0 170 22" fill="none" xmlns="http://www.w3.org/2000/svg">
<path d="M12.0457 17.0002C11.983 17.2207 11.909 17.3789 11.8232 17.4638C11.7372 17.5528 11.5848 17.5953 11.366 17.5953C10.5223 17.5799 9.66315 17.5565 8.78805 17.5257C7.91332 17.495 6.89758 17.4792 5.74144 17.4792C4.99153 17.4792 4.10484 17.495 3.08174 17.5257C2.05816 17.5565 1.04688 17.5799 0.0465963 17.5953V17.4099C0.484206 17.3481 0.863269 17.2786 1.18342 17.2013C1.50369 17.1241 1.76939 17.0119 1.98005 16.8652C2.19107 16.7183 2.35138 16.5213 2.46051 16.2737C2.57013 16.0265 2.6323 15.6944 2.64823 15.277C2.66381 14.9526 2.67153 14.4542 2.67153 13.7819C2.67153 13.1096 2.67153 12.3985 2.67153 11.6489C2.67153 10.8997 2.67153 10.1769 2.67153 9.48152C2.67153 8.78617 2.67153 8.25299 2.67153 7.88209C2.67153 7.51107 2.67153 7.11306 2.67153 6.6883C2.67153 6.26319 2.67153 5.83807 2.67153 5.41331C2.67153 4.98807 2.66743 4.57466 2.6597 4.17295C2.65198 3.771 2.64015 3.40809 2.62457 3.08329C2.609 2.66617 2.54647 2.33372 2.43722 2.08654C2.3276 1.83935 2.16777 1.64231 1.95675 1.49555C1.74573 1.34867 1.47628 1.23667 1.14829 1.1594C0.820291 1.08214 0.437489 1.01252 0 0.950662V0.764975C0.343448 0.796142 0.765483 0.81919 1.26526 0.834594C1.76541 0.850357 2.281 0.865638 2.81217 0.881042C3.34346 0.896447 3.85905 0.904097 4.35884 0.904097C4.85898 0.904097 5.28838 0.904097 5.64776 0.904097L9.13971 0.881042C9.53024 0.881042 9.87007 0.881042 10.1592 0.881042C10.4483 0.881042 10.6982 0.861699 10.9092 0.823248C11.1199 0.784438 11.2957 0.718879 11.4363 0.626213C11.5771 0.533189 11.7021 0.394072 11.8114 0.20874L11.9753 0.324808C11.8816 0.680067 11.8232 1.04333 11.7994 1.41423C11.7761 1.78514 11.7487 2.05573 11.7177 2.22566C11.7021 2.39559 11.6862 2.58485 11.6706 2.79359C11.6552 3.00233 11.6432 3.21476 11.6355 3.43114C11.6278 3.64752 11.6199 3.8522 11.6122 4.04517C11.6043 4.2385 11.6003 4.39709 11.6003 4.52057H11.3893C11.3112 3.65529 11.0458 2.98298 10.5927 2.50365C10.1396 2.02468 9.44441 1.76973 8.50714 1.73868L7.28847 1.71564H5.22585V8.34566C5.39799 8.34566 5.70257 8.34566 6.13982 8.34566C6.57731 8.34566 7.03049 8.33789 7.49913 8.32249C8.04623 8.32249 8.63957 8.31485 9.28035 8.29908C9.59277 8.29908 9.84677 8.26469 10.0419 8.19507C10.2373 8.12557 10.3973 8.03255 10.5223 7.91684C10.6475 7.80077 10.7489 7.66201 10.827 7.49937C10.9051 7.3372 10.9832 7.1478 11.0613 6.93142C11.0928 6.93142 11.1239 6.94719 11.155 6.97788L11.202 7.02445C11.1709 7.17897 11.1435 7.35248 11.1199 7.54593C11.0965 7.73926 11.0732 7.93618 11.0499 8.13692C11.0262 8.33789 11.0065 8.52729 10.991 8.70486C10.9755 8.88279 10.9677 9.0256 10.9677 9.13403C10.9677 9.30396 10.9677 9.49324 10.9677 9.70197C10.9677 9.91035 10.9714 10.1154 10.9795 10.316C10.9873 10.5171 10.991 10.7023 10.991 10.8726C10.991 11.0425 10.991 11.174 10.991 11.2667L10.7801 11.2435C10.7645 11.0425 10.7371 10.8261 10.6982 10.5944C10.659 10.3626 10.5809 10.1501 10.4639 9.9568C10.3465 9.76347 10.1748 9.60119 9.94818 9.47019C9.7217 9.33871 9.42111 9.27279 9.04603 9.27279L5.22585 9.20353V11.2124L5.24951 14.3806C5.24951 14.798 5.28838 15.1536 5.36649 15.455C5.44459 15.7563 5.58149 16.0035 5.77657 16.1929C5.97214 16.3858 6.24159 16.525 6.58516 16.6099C6.92897 16.6952 7.3743 16.73 7.92104 16.7142C8.15536 16.7142 8.33499 16.7107 8.46006 16.7029C8.58524 16.6952 8.70222 16.6871 8.81172 16.6795C8.92097 16.6717 9.0301 16.6641 9.13971 16.6564C9.24896 16.6487 9.40517 16.6293 9.60834 16.5985C9.95227 16.5521 10.2684 16.4787 10.5576 16.3781C10.8466 16.2778 11.112 16.1192 11.3546 15.9032C11.5966 15.6868 11.8268 15.3967 12.0457 15.0335C12.2644 14.6706 12.4754 14.2107 12.6783 13.6545L12.866 13.7471L12.0457 17.0002ZM33.1141 16.5751C33.1141 16.6988 33.11 16.8381 33.1023 16.9926C33.0945 17.1471 33.0904 17.2939 33.0904 17.4331C33.0749 17.6029 33.0671 17.7652 33.0671 17.9197L32.8094 17.9894C30.7002 15.8413 28.7471 13.832 26.9506 11.962C26.1851 11.174 25.4118 10.3743 24.6303 9.56273C23.8492 8.75131 23.1147 7.9941 22.4274 7.29099C21.74 6.58763 21.127 5.95772 20.588 5.40148C20.0489 4.84525 19.631 4.4125 19.3342 4.10345C19.3342 4.22681 19.3342 4.31219 19.3342 4.35828C19.3342 4.40485 19.3342 4.45094 19.3342 4.49739C19.3342 4.54397 19.3342 4.62123 19.3342 4.72918C19.3342 4.83725 19.3342 5.01518 19.3342 5.26237L19.3105 9.41191L19.3342 12.82C19.3342 13.3143 19.3342 13.8166 19.3342 14.3268C19.3342 14.8364 19.3497 15.2229 19.3808 15.4857C19.4123 15.8102 19.4748 16.0844 19.5685 16.3086C19.6621 16.5326 19.8143 16.7183 20.0253 16.8652C20.2363 17.0119 20.5213 17.1317 20.8807 17.2244C21.2402 17.317 21.7011 17.3865 22.2634 17.4331V17.5953C21.7636 17.5645 21.1972 17.5375 20.5643 17.514C19.9316 17.4909 19.3182 17.4792 18.7248 17.4792C18.1777 17.4792 17.5725 17.4909 16.9083 17.514C16.2446 17.5375 15.6623 17.5645 15.1626 17.5953V17.4562C15.6002 17.3943 15.9866 17.3247 16.3227 17.2474C16.6585 17.1702 16.9398 17.0582 17.1664 16.9113C17.3929 16.7644 17.5646 16.5675 17.6816 16.3203C17.799 16.0731 17.8652 15.7407 17.8812 15.3235C17.8967 14.9991 17.9045 14.5003 17.9045 13.828C17.9045 13.1562 17.9045 12.4373 17.9045 11.6723C17.9045 10.9073 17.9045 10.1769 17.9045 9.48152C17.9045 8.78617 17.9045 8.25299 17.9045 7.88209C17.9045 7.51107 17.9045 7.11306 17.9045 6.6883C17.9045 6.26319 17.9045 5.83031 17.9045 5.38979C17.9045 4.94927 17.9005 4.52821 17.8926 4.1265C17.8849 3.72479 17.8731 3.36152 17.8575 3.03707C17.8419 2.61972 17.7716 2.28751 17.6469 2.03996C17.5218 1.79289 17.3459 1.59587 17.1193 1.44899C16.8928 1.30222 16.6114 1.19009 16.2757 1.11283C15.94 1.03557 15.5531 0.966074 15.1156 0.904097V0.764975C15.5375 0.796142 15.8852 0.81919 16.1584 0.834594C16.4319 0.850357 16.6781 0.857999 16.8968 0.857999C17.1157 0.857999 17.3226 0.853933 17.5177 0.846291C17.7131 0.838529 17.9433 0.834594 18.2092 0.834594C18.3028 0.834594 18.4358 0.83089 18.6074 0.823248C18.7792 0.815486 18.9592 0.807488 19.1464 0.799726C19.3342 0.792084 19.5096 0.784433 19.674 0.776671C19.8379 0.769029 19.9667 0.764975 20.0604 0.764975C22.2167 3.08329 24.1462 5.16206 25.8489 7.00104C26.5678 7.78942 27.2786 8.55798 27.9816 9.30754C28.6849 10.0571 29.3135 10.7294 29.8684 11.3244C30.4229 11.9195 30.872 12.4066 31.2158 12.7851C31.5594 13.1638 31.7471 13.3608 31.7781 13.3761H31.8019C31.8329 13.3761 31.8485 13.3608 31.8485 13.3297C31.8485 13.2836 31.8447 13.0671 31.837 12.6808C31.8288 12.2945 31.8252 11.8268 31.8252 11.2784C31.8252 10.7294 31.8211 10.1461 31.8133 9.52798C31.8055 8.90989 31.8019 8.35329 31.8019 7.85892C31.8019 7.48802 31.7978 7.09001 31.79 6.6649C31.7822 6.24014 31.7781 5.81096 31.7781 5.37844C31.7781 4.94568 31.7781 4.52821 31.7781 4.1265C31.7781 3.72479 31.7704 3.36152 31.7548 3.03707C31.7392 2.61972 31.669 2.28751 31.5438 2.03996C31.4191 1.79289 31.2432 1.59587 31.0167 1.44899C30.7901 1.30222 30.5088 1.19009 30.173 1.11283C29.8369 1.03557 29.4505 0.966074 29.0129 0.904097V0.764975C29.2628 0.764975 29.5441 0.769029 29.8565 0.776671C30.169 0.784433 30.4854 0.799723 30.8057 0.823248C31.1258 0.846295 31.4424 0.865638 31.7548 0.881042C32.0672 0.896447 32.3563 0.904097 32.6218 0.904097C33.247 0.904097 33.8405 0.888808 34.4032 0.857999C34.9653 0.826832 35.4733 0.796142 35.9264 0.764975V0.927619C35.4418 0.973713 35.0357 1.03963 34.7077 1.12454C34.3794 1.20956 34.114 1.3292 33.9107 1.48373C33.7079 1.63837 33.5553 1.83935 33.4539 2.08654C33.3522 2.33372 33.2936 2.64277 33.2782 3.01367C33.2626 3.27662 33.2508 3.59331 33.2429 3.96433C33.2352 4.33523 33.2311 4.76799 33.2311 5.26237L33.2078 9.41191L33.1141 16.5751V16.5751ZM49.7296 17.0002C49.6671 17.2207 49.5931 17.3789 49.5073 17.4638C49.4213 17.5528 49.2689 17.5953 49.05 17.5953C48.2064 17.5799 47.3472 17.5565 46.4721 17.5257C45.5974 17.495 44.5815 17.4792 43.4255 17.4792C42.6755 17.4792 41.7889 17.495 40.7658 17.5257C39.7422 17.5565 38.7308 17.5799 37.7307 17.5953V17.4099C38.1682 17.3481 38.5472 17.2786 38.8675 17.2013C39.1876 17.1241 39.4535 17.0119 39.6641 16.8652C39.8752 16.7183 40.0353 16.5213 40.1446 16.2737C40.2542 16.0265 40.3164 15.6944 40.3323 15.277C40.3479 14.9526 40.3556 14.4542 40.3556 13.7819C40.3556 13.1096 40.3556 12.3985 40.3556 11.6489C40.3556 10.8997 40.3556 10.1769 40.3556 9.48152C40.3556 8.78617 40.3556 8.25299 40.3556 7.88209C40.3556 7.51107 40.3556 7.11306 40.3556 6.6883C40.3556 6.26319 40.3556 5.83807 40.3556 5.41331C40.3556 4.98807 40.3515 4.57466 40.3438 4.17295C40.3359 3.771 40.3241 3.40809 40.3085 3.08329C40.2931 2.66617 40.2304 2.33372 40.1213 2.08654C40.0117 1.83935 39.8517 1.64231 39.6408 1.49555C39.4298 1.34867 39.1602 1.23667 38.8324 1.1594C38.5044 1.08214 38.1216 1.01252 37.684 0.950662V0.764975C38.0275 0.796142 38.4496 0.81919 38.9493 0.834594C39.4494 0.850357 39.9651 0.865638 40.4963 0.881042C41.0275 0.896447 41.5431 0.904097 42.0429 0.904097C42.5431 0.904097 42.9725 0.904097 43.3318 0.904097L46.8238 0.881042C47.2143 0.881042 47.5541 0.881042 47.8433 0.881042C48.1324 0.881042 48.3823 0.861699 48.5932 0.823248C48.8038 0.784438 48.9797 0.718879 49.1204 0.626213C49.261 0.533189 49.3862 0.394072 49.4953 0.20874L49.6594 0.324808C49.5657 0.680067 49.5073 1.04333 49.4835 1.41423C49.4602 1.78514 49.4328 2.05573 49.4018 2.22566C49.3862 2.39559 49.3703 2.58485 49.3547 2.79359C49.3391 3.00233 49.3273 3.21476 49.3196 3.43114C49.3117 3.64752 49.304 3.8522 49.2963 4.04517C49.2884 4.2385 49.2844 4.39709 49.2844 4.52057H49.0734C48.9953 3.65529 48.7298 2.98298 48.2768 2.50365C47.8236 2.02468 47.1285 1.76973 46.1911 1.73868L44.9726 1.71564H42.9098V8.34566C43.082 8.34566 43.3867 8.34566 43.8238 8.34566C44.2614 8.34566 44.7145 8.33789 45.1831 8.32249C45.7303 8.32249 46.3237 8.31485 46.9644 8.29908C47.2769 8.29908 47.5308 8.26469 47.7259 8.19507C47.9214 8.12557 48.0813 8.03255 48.2064 7.91684C48.3315 7.80077 48.433 7.66201 48.5111 7.49937C48.5892 7.3372 48.6673 7.1478 48.7454 6.93142C48.7768 6.93142 48.8079 6.94719 48.8391 6.97788L48.8861 7.02445C48.8549 7.17897 48.8276 7.35248 48.8038 7.54593C48.7805 7.73926 48.7572 7.93618 48.7339 8.13692C48.7102 8.33789 48.6906 8.52729 48.675 8.70486C48.6595 8.88279 48.6517 9.0256 48.6517 9.13403C48.6517 9.30396 48.6517 9.49324 48.6517 9.70197C48.6517 9.91035 48.6555 10.1154 48.6636 10.316C48.6713 10.5171 48.675 10.7023 48.675 10.8726C48.675 11.0425 48.675 11.174 48.675 11.2667L48.464 11.2435C48.4484 11.0425 48.4212 10.8261 48.3823 10.5944C48.3431 10.3626 48.265 10.1501 48.148 9.9568C48.0305 9.76347 47.8588 9.60119 47.6323 9.47019C47.4057 9.33871 47.1051 9.27279 46.7301 9.27279L42.9098 9.20353V11.2124L42.9336 14.3806C42.9336 14.798 42.9725 15.1536 43.0506 15.455C43.1287 15.7563 43.2656 16.0035 43.4607 16.1929C43.6561 16.3858 43.9257 16.525 44.2691 16.6099C44.613 16.6952 45.0584 16.73 45.6051 16.7142C45.8394 16.7142 46.019 16.7107 46.1441 16.7029C46.2692 16.6952 46.3862 16.6871 46.4958 16.6795C46.605 16.6717 46.7142 16.6641 46.8238 16.6564C46.9329 16.6487 47.0893 16.6293 47.2924 16.5985C47.6364 16.5521 47.9524 16.4787 48.2415 16.3781C48.5307 16.2778 48.7961 16.1192 49.0385 15.9032C49.2807 15.6868 49.5109 15.3967 49.7296 15.0335C49.9485 14.6706 50.1595 14.2107 50.3623 13.6545L50.5501 13.7471L49.7296 17.0002V17.0002ZM79.3053 20.6554C78.9925 20.8872 78.6097 21.0879 78.1567 21.2582C77.7039 21.4281 77.2312 21.5672 76.7388 21.6752C76.2469 21.7836 75.7586 21.8646 75.2744 21.9188C74.7898 21.9729 74.3604 22 73.9854 22C72.8289 22 71.7629 21.8338 70.7864 21.5013C69.8098 21.1692 68.9077 20.717 68.0796 20.1454C67.2514 19.5734 66.4937 18.9051 65.8025 18.1402C65.1152 17.3752 64.4667 16.5597 63.8651 15.6944C63.2636 14.8288 62.7012 13.9323 62.1855 13.0052C61.6662 12.0781 61.1738 11.174 60.7051 10.2929C60.4827 10.3548 60.1702 10.405 59.7638 10.4434C59.3578 10.4822 58.9399 10.4863 58.5178 10.4551V11.7767C58.5178 12.7965 58.5178 13.604 58.5178 14.199C58.5178 14.7941 58.5338 15.2229 58.5648 15.4857C58.5959 15.8102 58.6585 16.0844 58.7521 16.3086C58.8462 16.5326 58.9983 16.7183 59.2093 16.8652C59.4203 17.0119 59.7053 17.1317 60.0647 17.2244C60.4239 17.317 60.8851 17.3865 61.4475 17.4331V17.5953C61.1976 17.5799 60.8966 17.5645 60.5453 17.5488C60.1937 17.5334 59.8227 17.5221 59.4318 17.514C59.0413 17.5063 58.6585 17.4987 58.2875 17.4909C57.9163 17.4833 57.5806 17.4792 57.2877 17.4792C57.0104 17.4792 56.6899 17.4833 56.3345 17.4909C55.9791 17.4987 55.6159 17.5104 55.2487 17.5257C54.8815 17.5411 54.5221 17.5528 54.1708 17.5605C53.819 17.5682 53.5184 17.5799 53.2683 17.5953V17.4562C53.7058 17.3943 54.0927 17.3247 54.4284 17.2474C54.7645 17.1702 55.0418 17.0582 55.2606 16.9113C55.4789 16.7644 55.6511 16.5675 55.7759 16.3203C55.901 16.0731 55.9714 15.7407 55.9869 15.3235C56.0024 15.0145 56.0102 14.5315 56.0102 13.8746C56.0102 13.2177 56.0102 12.5186 56.0102 11.7767C56.0102 11.4365 56.0102 11.0733 56.0102 10.6869C56.0102 10.3006 56.0065 9.92969 55.9987 9.5742C55.9909 9.21894 55.9869 8.89413 55.9869 8.60049C55.9869 8.30721 55.9869 8.07542 55.9869 7.90513C55.9869 7.53411 55.9869 7.13646 55.9869 6.71135C55.9869 6.28623 55.9869 5.85741 55.9869 5.42465C55.9869 4.99213 55.9869 4.57466 55.9869 4.17295C55.9869 3.771 55.9791 3.40809 55.9635 3.08329C55.948 2.66617 55.8854 2.33372 55.7759 2.08654C55.6666 1.83935 55.5027 1.64231 55.2838 1.49555C55.0651 1.34867 54.7916 1.23667 54.4636 1.1594C54.1356 1.08214 53.7529 1.01252 53.3153 0.950662V0.788379C54.3151 0.788379 55.1314 0.803785 55.7644 0.834594C56.397 0.865642 56.9086 0.881042 57.2992 0.881042L60.0178 0.811423C60.7052 0.811423 61.4319 0.873405 62.1974 0.99676C62.963 1.12059 63.67 1.33697 64.3182 1.64602C64.9667 1.95506 65.5057 2.38388 65.9351 2.93271C66.3649 3.4813 66.5796 4.18071 66.5796 5.03059C66.5796 5.50956 66.4859 5.96942 66.2986 6.40994C66.111 6.85046 65.857 7.25624 65.5331 7.62714C65.2125 7.99769 64.8416 8.33384 64.4158 8.63524C63.9939 8.93664 63.5489 9.18776 63.0762 9.38886C63.5174 10.1769 63.9939 11.0117 64.5095 11.8924C65.0289 12.7734 65.5915 13.6468 66.2046 14.5121C66.8139 15.3777 67.4743 16.2046 68.1851 16.9926C68.8958 17.7806 69.6614 18.4763 70.4817 19.079C71.302 19.6818 72.1767 20.1608 73.1066 20.5163C74.0361 20.8719 75.032 21.0495 76.0944 21.0495C76.6256 21.0495 77.1453 20.9953 77.6528 20.8872C78.1607 20.7789 78.6645 20.6396 79.1647 20.4698L79.3053 20.6554V20.6554ZM63.9784 6.02734C63.9784 5.22391 63.8262 4.53226 63.5174 3.95251C63.2127 3.37323 62.8145 2.89795 62.3185 2.52705C61.8262 2.15603 61.2597 1.88186 60.6234 1.70381C59.9904 1.52624 59.3422 1.43728 58.6821 1.43728L58.5178 1.66906V5.21627L58.4945 8.90224V9.85243C59.1701 9.83703 59.8304 9.72872 60.4827 9.52798C61.135 9.32701 61.7206 9.06036 62.2362 8.72827C62.7559 8.39581 63.1739 7.99769 63.4941 7.53412C63.8184 7.07055 63.9784 6.56817 63.9784 6.02734V6.02734ZM90.1323 9.73671C89.6481 9.78281 89.2417 9.84872 88.9137 9.93375C88.5858 10.0187 88.32 10.1421 88.1167 10.3047C87.9139 10.4669 87.7614 10.6676 87.6599 10.9073C87.5585 11.1469 87.4997 11.4519 87.4841 11.8229C87.4685 12.0393 87.4608 12.3637 87.4608 12.7965C87.4608 13.2294 87.4608 13.6311 87.4608 14.002V16.9926C87.3512 17.0544 87.1717 17.12 86.9218 17.1895C86.6715 17.2591 86.3984 17.3287 86.1015 17.3982C85.8045 17.4679 85.5077 17.5297 85.2108 17.5836C84.914 17.6378 84.6641 17.6802 84.4608 17.7113C84.0703 17.7574 83.6328 17.8117 83.1486 17.8736C82.6644 17.9355 82.1254 17.9662 81.5315 17.9662C80.2659 17.9662 79.0199 17.7846 77.7934 17.4213C76.567 17.0582 75.4736 16.5096 74.5126 15.7754C73.5516 15.0416 72.7782 14.118 72.1926 13.0052C71.6066 11.8924 71.3138 10.5789 71.3138 9.06441C71.3138 7.7044 71.6025 6.49091 72.1808 5.42465C72.759 4.35828 73.5205 3.4542 74.4655 2.71227C75.411 1.97047 76.4853 1.40647 77.688 1.02017C78.891 0.633859 80.1097 0.440526 81.3439 0.440526C81.5471 0.440526 81.8441 0.44458 82.2346 0.452223C82.6251 0.459984 83.0626 0.494736 83.5468 0.552652C84.0314 0.614509 84.5389 0.699412 85.0702 0.811423C85.6014 0.923553 86.117 1.07808 86.6171 1.27511L87.3435 5.03059L87.0624 5.07716C86.9218 4.52057 86.6834 4.00672 86.3476 3.53551C86.0116 3.06382 85.6014 2.65447 85.1171 2.30661C84.6329 1.95912 84.0744 1.68852 83.4413 1.49555C82.8087 1.30222 82.1253 1.20549 81.3909 1.20549C80.3755 1.20549 79.4497 1.40253 78.6138 1.79684C77.778 2.19091 77.0595 2.72768 76.4579 3.39998C75.8564 4.07229 75.3877 4.85672 75.0515 5.7571C74.7158 6.65355 74.5477 7.60373 74.5477 8.61219C74.5477 9.60118 74.7081 10.5983 75.0282 11.595C75.3485 12.5918 75.8367 13.4959 76.493 14.2997C77.149 15.1031 77.977 15.76 78.977 16.2624C79.9768 16.7644 81.1566 17.0156 82.5159 17.0156C82.7188 17.0156 82.9417 17.0043 83.1837 16.9809C83.4257 16.9577 83.6601 16.9306 83.8867 16.8999C84.1132 16.8688 84.3124 16.8381 84.4845 16.8073C84.6562 16.7761 84.7732 16.7454 84.8358 16.7142C84.8358 16.529 84.8436 16.3356 84.8595 16.135C84.8595 15.9647 84.8632 15.764 84.871 15.5323C84.8787 15.3005 84.8828 15.0683 84.8828 14.8364V13.9324C84.8828 13.6233 84.8828 13.2719 84.8828 12.8778C84.8828 12.4838 84.8751 12.1707 84.8595 11.939C84.8436 11.5215 84.7732 11.1853 84.6485 10.9305C84.5233 10.6756 84.3476 10.4705 84.121 10.316C83.8945 10.1615 83.6135 10.0417 83.2774 9.9568C82.9417 9.8719 82.5547 9.79821 82.1176 9.73671V9.55103C82.3674 9.55103 82.6721 9.55509 83.0316 9.56273C83.3906 9.5705 83.762 9.5859 84.1446 9.60895C84.5274 9.63235 84.8984 9.65145 85.2578 9.66709C85.6173 9.6825 85.9297 9.69026 86.1951 9.69026C86.5076 9.69026 86.8437 9.6862 87.2027 9.67844C87.5622 9.6708 87.9216 9.65945 88.2811 9.64369C88.6401 9.62828 88.9799 9.61301 89.3002 9.5976C89.6207 9.5822 89.898 9.56643 90.1323 9.55103V9.73671V9.73671ZM108.576 0.904097C107.701 0.996763 106.982 1.27905 106.42 1.75038C105.858 2.22159 105.373 2.79729 104.967 3.47724C104.842 3.66293 104.693 3.90236 104.522 4.19612C104.35 4.48976 104.159 4.81421 103.948 5.16971C103.737 5.52533 103.514 5.89622 103.28 6.28253C103.045 6.66883 102.819 7.0475 102.6 7.4184C102.084 8.29908 101.53 9.23434 100.936 10.2233C100.936 11.1198 100.936 11.8731 100.936 12.4839C100.936 13.0942 100.936 13.6003 100.936 14.002C100.936 14.404 100.94 14.7207 100.948 14.9526C100.956 15.1844 100.967 15.362 100.983 15.4857C101.014 15.8102 101.077 16.0844 101.17 16.3086C101.264 16.5326 101.417 16.7183 101.627 16.8652C101.838 17.0119 102.123 17.1317 102.483 17.2244C102.842 17.317 103.303 17.3865 103.865 17.4331V17.5953C103.615 17.5799 103.315 17.5645 102.963 17.5488C102.612 17.5334 102.241 17.5221 101.85 17.514C101.459 17.5063 101.077 17.4987 100.698 17.4909C100.319 17.4833 99.9829 17.4792 99.6823 17.4792C99.3972 17.4792 99.0767 17.4833 98.7135 17.4909C98.3504 17.4987 97.9872 17.5104 97.62 17.5257C97.2528 17.5411 96.8934 17.5528 96.5421 17.5605C96.1903 17.5682 95.8898 17.5799 95.6396 17.5953V17.4562C96.0771 17.3943 96.464 17.3247 96.7997 17.2474C97.1354 17.1702 97.4131 17.0582 97.6315 16.9113C97.8502 16.7644 98.0224 16.5675 98.1472 16.3203C98.2723 16.0731 98.3426 15.7407 98.3582 15.3235C98.3582 15.1844 98.3622 14.9408 98.37 14.5933C98.3778 14.2455 98.3815 13.8629 98.3815 13.4457C98.3815 13.0283 98.3815 12.5996 98.3815 12.159C98.3815 11.7185 98.3815 11.3285 98.3815 10.9883C97.8502 10.0766 97.3427 9.20353 96.8581 8.3687C96.6553 8.01344 96.4443 7.65018 96.2256 7.27928C96.0068 6.90838 95.7921 6.54512 95.581 6.1895C95.37 5.83436 95.1749 5.50191 94.9951 5.19287C94.8156 4.8837 94.6552 4.61347 94.5146 4.38133C94.4365 4.24257 94.3272 4.06464 94.1866 3.84826C94.046 3.63176 93.9052 3.4081 93.7649 3.17596C93.6243 2.94406 93.4873 2.73173 93.3548 2.5384C93.2219 2.34542 93.1241 2.21025 93.0616 2.13298C92.7025 1.74632 92.3116 1.47203 91.89 1.30986C91.468 1.14758 90.9526 1.02792 90.3434 0.950662V0.741931C90.6088 0.757336 90.9175 0.776679 91.2688 0.799726C91.6205 0.823251 91.9836 0.842236 92.3587 0.857999C92.7336 0.873404 93.0967 0.88475 93.4484 0.892751C93.8001 0.900513 94.1085 0.904097 94.3743 0.904097C94.4679 0.904097 94.6475 0.904097 94.9132 0.904097C95.1787 0.904097 95.4834 0.896447 95.8272 0.881042C96.1708 0.865638 96.5421 0.850357 96.9403 0.834594C97.3387 0.81919 97.7178 0.788384 98.0768 0.741931V0.927619C97.8895 0.973713 97.7019 1.01252 97.5145 1.04333C97.3268 1.07401 97.1514 1.12453 96.9869 1.19414C96.823 1.26376 96.6905 1.36001 96.5887 1.48373C96.4873 1.60756 96.4366 1.78513 96.4366 2.01692C96.4366 2.20225 96.5147 2.44203 96.6709 2.73579C96.8271 3.02908 97.0144 3.35389 97.2332 3.70939C97.3583 3.92553 97.5145 4.20005 97.7018 4.53226C97.8894 4.86435 98.0886 5.21628 98.2997 5.58682C98.5103 5.95772 98.7253 6.33638 98.9363 6.72304C99.1511 7.10935 99.3462 7.46855 99.5298 7.80076C99.7097 8.13321 99.8696 8.42291 100.003 8.66998C100.135 8.91753 100.233 9.08746 100.299 9.18013C100.725 8.40752 101.139 7.66559 101.545 6.95483C101.702 6.66119 101.87 6.35585 102.049 6.03904C102.229 5.72236 102.397 5.42095 102.553 5.13496C102.709 4.84896 102.854 4.58636 102.986 4.34657C103.119 4.10715 103.225 3.90235 103.303 3.73255C103.475 3.39233 103.623 3.11039 103.748 2.88625C103.873 2.66211 103.951 2.48048 103.983 2.34136C104.045 2.09418 104.041 1.88545 103.971 1.71564C103.9 1.54571 103.787 1.40647 103.631 1.29817C103.475 1.1901 103.295 1.10518 103.092 1.04333C102.889 0.981349 102.686 0.935265 102.483 0.904097V0.764975C102.733 0.74957 102.959 0.74957 103.162 0.764975C103.366 0.780737 103.561 0.799723 103.748 0.823248C103.936 0.846295 104.131 0.865638 104.334 0.881042C104.537 0.896447 104.772 0.904097 105.037 0.904097C105.678 0.904097 106.315 0.884742 106.947 0.846291C107.58 0.807481 108.123 0.772621 108.576 0.741931V0.904097V0.904097Z" fill="white"/>
<path d="M133.019 17.5953C132.691 17.5799 132.339 17.5605 131.964 17.5375C131.589 17.514 131.219 17.495 130.851 17.4792C130.484 17.4638 130.125 17.4525 129.773 17.4445C129.422 17.4367 129.105 17.4331 128.824 17.4331C128.09 17.4331 127.402 17.4484 126.762 17.4792C126.121 17.5104 125.473 17.5488 124.817 17.5953V17.4331C125.254 17.3711 125.629 17.3016 125.942 17.2244C126.254 17.1471 126.512 17.035 126.715 16.8882C126.918 16.7413 127.07 16.5443 127.172 16.2972C127.274 16.0497 127.332 15.7175 127.348 15.3005C127.364 15.084 127.344 14.6706 127.289 14.0602C127.234 13.4494 127.168 12.7811 127.09 12.0547C127.012 11.3285 126.93 10.602 126.844 9.87547C126.758 9.14931 126.692 8.56204 126.645 8.11388C126.629 7.91278 126.602 7.65389 126.563 7.3372C126.524 7.02039 126.485 6.70371 126.445 6.3869C126.407 6.06985 126.371 5.78016 126.34 5.51756C126.309 5.25473 126.293 5.07716 126.293 4.98414H126.199C125.762 5.91163 125.418 6.65355 125.168 7.20979C124.918 7.7659 124.703 8.25299 124.524 8.66998C124.344 9.08746 124.161 9.49693 123.973 9.89888C123.786 10.3006 123.539 10.8144 123.235 11.4405C122.93 12.0664 122.536 12.8661 122.051 13.8398C121.567 14.8134 120.934 16.0731 120.153 17.6183H119.989C119.083 15.6249 118.145 13.6504 117.177 11.6954C116.208 9.74042 115.279 7.7659 114.388 5.77251H114.318L113.99 8.04426C113.896 8.69351 113.79 9.40821 113.673 10.1886C113.556 10.969 113.435 11.7072 113.31 12.4025C113.216 12.9588 113.13 13.5076 113.052 14.0484C112.974 14.5894 112.927 14.991 112.912 15.2539C112.896 15.5323 112.923 15.7912 112.993 16.0306C113.064 16.2701 113.2 16.4824 113.404 16.6681C113.607 16.8534 113.888 17.0119 114.247 17.1431C114.607 17.2745 115.068 17.3635 115.63 17.4099V17.5953C115.271 17.5645 114.747 17.5334 114.06 17.5026C113.372 17.4716 112.677 17.4562 111.974 17.4562C111.286 17.4562 110.673 17.4716 110.134 17.5026C109.596 17.5334 109.146 17.5645 108.787 17.5953V17.4331C109.193 17.3711 109.56 17.2786 109.888 17.1548C110.216 17.0314 110.505 16.8457 110.755 16.5985C111.006 16.351 111.216 16.0343 111.388 15.648C111.56 15.2617 111.701 14.7669 111.81 14.1641L113.497 4.45095C113.388 4.20376 113.287 3.96433 113.193 3.73255C113.114 3.54686 113.036 3.35746 112.958 3.16449C112.88 2.97116 112.818 2.82834 112.771 2.7358C112.49 2.1484 112.134 1.71958 111.704 1.44899C111.275 1.17839 110.763 1.00488 110.17 0.927621V0.764977C110.326 0.780739 110.517 0.792086 110.744 0.799728C110.97 0.80749 111.205 0.815488 111.447 0.82325C111.689 0.830892 111.92 0.834596 112.138 0.834596C112.357 0.834596 112.544 0.834596 112.701 0.834596C113.107 0.834596 113.501 0.830892 113.884 0.82325C114.267 0.815488 114.599 0.796144 114.88 0.764977C115.364 1.81595 115.849 2.90561 116.333 4.03384C116.817 5.16207 117.306 6.29388 117.798 7.42975C118.29 8.5661 118.778 9.69791 119.262 10.8261C119.747 11.9542 120.223 13.036 120.692 14.0716C121.223 13.036 121.762 11.962 122.309 10.8492C122.856 9.73672 123.399 8.61219 123.938 7.47631C124.477 6.34044 125.016 5.20816 125.555 4.08005C126.094 2.95182 126.629 1.84699 127.16 0.764977C127.285 0.780739 127.437 0.792086 127.617 0.799728C127.797 0.80749 127.984 0.815488 128.18 0.82325C128.375 0.830892 128.562 0.838531 128.742 0.846293C128.922 0.853936 129.074 0.858001 129.199 0.858001C129.621 0.858001 130 0.850359 130.336 0.834596C130.672 0.819192 130.98 0.796144 131.261 0.764977V0.927621C130.777 0.973715 130.379 1.03963 130.066 1.12454C129.754 1.20956 129.5 1.3292 129.305 1.48373C129.109 1.63837 128.965 1.83935 128.871 2.08654C128.777 2.33373 128.722 2.64277 128.707 3.01367C128.707 3.07553 128.711 3.18766 128.719 3.34983C128.726 3.51211 128.738 3.63988 128.754 3.73255C128.832 4.47435 128.926 5.27778 129.035 6.14342C129.144 7.0087 129.25 7.85498 129.351 8.68181C129.453 9.50863 129.547 10.2658 129.633 10.9536C129.719 11.6413 129.785 12.1707 129.832 12.5417C129.879 12.9898 129.925 13.4146 129.972 13.8166C130.004 14.1565 130.039 14.485 130.078 14.8017C130.117 15.1189 130.152 15.3389 130.184 15.4626C130.246 15.7871 130.32 16.0614 130.406 16.2854C130.492 16.5096 130.637 16.6952 130.84 16.8417C131.043 16.9885 131.316 17.1087 131.66 17.2013C132.004 17.2939 132.457 17.3635 133.019 17.4099V17.5953V17.5953ZM152.471 17.5953C152.158 17.5799 151.814 17.5565 151.439 17.5257C151.127 17.495 150.768 17.4716 150.361 17.4562C149.955 17.4408 149.525 17.4331 149.072 17.4331C148.713 17.4331 148.334 17.4408 147.936 17.4562C147.538 17.4716 147.151 17.4909 146.776 17.514C146.401 17.5375 146.05 17.5565 145.721 17.5722C145.393 17.5876 145.112 17.5953 144.877 17.5953V17.4331C145.721 17.3093 146.272 17.0929 146.53 16.7839C146.788 16.4748 146.783 15.9416 146.518 15.1844C146.377 14.8288 146.225 14.4194 146.061 13.9559C145.897 13.4918 145.737 13.0518 145.58 12.6343C145.409 12.1399 145.229 11.6452 145.041 11.1506L142.229 11.1044L139.534 11.1506C139.3 11.7533 139.089 12.3099 138.902 12.82C138.73 13.2524 138.573 13.6621 138.433 14.0484C138.292 14.4348 138.206 14.6897 138.175 14.8134C138.097 15.0606 138.023 15.3005 137.952 15.5323C137.882 15.764 137.847 15.957 137.847 16.1116C137.847 16.3433 137.902 16.5404 138.011 16.7029C138.12 16.8652 138.261 16.9965 138.433 17.097C138.605 17.1973 138.796 17.2745 139.007 17.3287C139.218 17.383 139.425 17.4177 139.628 17.4331V17.5953L136.488 17.4331C136.457 17.4331 136.3 17.4408 136.019 17.4562C135.738 17.4716 135.413 17.4909 135.047 17.514C134.679 17.5375 134.324 17.5565 133.98 17.5722C133.636 17.5876 133.386 17.5953 133.23 17.5953V17.4331C133.746 17.3404 134.175 17.2244 134.519 17.0853C134.863 16.946 135.16 16.7644 135.41 16.5404C135.66 16.3166 135.878 16.0343 136.066 15.6944C136.253 15.3542 136.448 14.9372 136.652 14.4425C136.745 14.2107 136.902 13.828 137.12 13.2949C137.339 12.7617 137.601 12.1359 137.906 11.4171C138.21 10.6987 138.538 9.91835 138.89 9.07576C139.242 8.23353 139.597 7.38736 139.956 6.53749C140.784 4.55938 141.698 2.38017 142.698 0H142.886L149.096 14.5352C149.424 15.3235 149.858 15.9841 150.397 16.5172C150.935 17.0504 151.627 17.3559 152.471 17.4331V17.5953V17.5953ZM142.323 4.31219C142.307 4.28102 142.292 4.23457 142.276 4.17295C142.261 4.11109 142.237 4.08005 142.206 4.08005C142.159 4.08005 142.136 4.11109 142.136 4.17295L139.792 10.2699L142.159 10.3394L144.76 10.2699L142.323 4.31219V4.31219ZM170 17.6649C169.735 17.6495 169.426 17.63 169.075 17.607C168.723 17.5836 168.364 17.5645 167.996 17.5488C167.63 17.5334 167.27 17.5221 166.918 17.514C166.567 17.5063 166.258 17.5026 165.993 17.5026C165.883 17.5026 165.696 17.5026 165.43 17.5026C165.165 17.5026 164.86 17.5104 164.516 17.5257C164.173 17.5411 163.805 17.5565 163.415 17.5722C163.024 17.5876 162.649 17.6183 162.29 17.6649V17.4792C162.462 17.4331 162.645 17.3943 162.841 17.3635C163.036 17.3327 163.216 17.2822 163.38 17.2127C163.544 17.1431 163.677 17.0468 163.778 16.923C163.88 16.7993 163.93 16.6216 163.93 16.3898C163.93 16.2046 163.852 15.9647 163.696 15.671C163.54 15.3777 163.352 15.0529 163.134 14.6977C162.93 14.3729 162.704 13.9983 162.454 13.5732C162.204 13.148 161.954 12.7309 161.704 12.3212C161.454 11.9119 161.231 11.5408 161.036 11.2087C160.841 10.8763 160.704 10.6328 160.626 10.4783C160.564 10.5712 160.419 10.7796 160.193 11.1044C159.966 11.4288 159.708 11.7997 159.419 12.2172C159.13 12.6343 158.837 13.0671 158.54 13.5154C158.244 13.9635 158.002 14.3498 157.814 14.6743C157.611 14.9991 157.454 15.277 157.345 15.5087C157.236 15.7406 157.166 15.9262 157.134 16.0653C157.072 16.3125 157.076 16.5213 157.146 16.6912C157.216 16.8611 157.325 17.0002 157.474 17.1087C157.622 17.2166 157.798 17.3016 158.002 17.3635C158.204 17.4254 158.408 17.4716 158.611 17.5026V17.6649C158.111 17.6802 157.665 17.6608 157.275 17.607C156.884 17.5528 156.423 17.5257 155.892 17.5257C155.58 17.5257 155.24 17.5297 154.873 17.5375C154.505 17.5451 154.138 17.5565 153.771 17.5722C153.404 17.5876 153.057 17.6029 152.728 17.6183C152.4 17.6341 152.119 17.6495 151.885 17.6649V17.5026C152.775 17.4253 153.521 17.1819 154.123 16.7725C154.724 16.3627 155.244 15.8798 155.681 15.3235C155.79 15.169 155.939 14.9679 156.126 14.7207C156.314 14.4737 156.517 14.199 156.736 13.8976C156.955 13.5962 157.189 13.2758 157.439 12.9357C157.689 12.5959 157.931 12.2634 158.165 11.939C158.728 11.1662 159.329 10.3394 159.97 9.45848C159.579 8.84027 159.196 8.22182 158.821 7.60373C158.509 7.0783 158.169 6.52566 157.802 5.94638C157.435 5.36674 157.119 4.84525 156.853 4.38133C156.775 4.24257 156.661 4.06464 156.513 3.84827C156.365 3.63177 156.212 3.40811 156.056 3.17596C155.9 2.94406 155.752 2.73173 155.611 2.5384C155.47 2.34543 155.369 2.21025 155.306 2.13299C154.947 1.74632 154.556 1.47203 154.135 1.30986C153.713 1.14758 153.197 1.02793 152.588 0.950664V0.741933C152.853 0.757338 153.162 0.776681 153.513 0.799728C153.865 0.823253 154.228 0.842238 154.603 0.858001C154.978 0.873406 155.341 0.884752 155.693 0.892753C156.044 0.900515 156.353 0.904099 156.619 0.904099C156.712 0.904099 156.892 0.904099 157.157 0.904099C157.423 0.904099 157.728 0.896449 158.071 0.881045C158.415 0.86564 158.786 0.850359 159.185 0.834596C159.583 0.819192 159.962 0.788386 160.321 0.741933V0.927621C160.134 0.973715 159.946 1.01252 159.759 1.04333C159.571 1.07402 159.396 1.12453 159.232 1.19415C159.068 1.26377 158.935 1.36001 158.833 1.48373C158.732 1.60756 158.681 1.78513 158.681 2.01692C158.681 2.20225 158.759 2.44204 158.915 2.7358C159.072 3.02908 159.259 3.35389 159.478 3.70939C159.681 4.04924 159.888 4.40486 160.099 4.77576C160.31 5.14666 160.517 5.50192 160.72 5.84201C160.923 6.18187 161.102 6.4909 161.259 6.76926C161.415 7.0475 161.54 7.26388 161.634 7.4184C161.696 7.32586 161.817 7.14422 161.997 6.87363C162.177 6.60292 162.384 6.29029 162.618 5.93467C162.852 5.57918 163.099 5.20458 163.356 4.81051C163.614 4.4162 163.837 4.05688 164.024 3.73255C164.399 3.09869 164.626 2.63501 164.704 2.34137C164.766 2.09418 164.762 1.88545 164.692 1.71564C164.622 1.54571 164.509 1.40648 164.352 1.29817C164.196 1.1901 164.017 1.10518 163.813 1.04333C163.61 0.981351 163.407 0.935267 163.204 0.904099V0.764977C163.704 0.734168 164.149 0.749568 164.54 0.811425C164.93 0.873401 165.391 0.904099 165.923 0.904099C166.563 0.904099 167.2 0.884745 167.832 0.846293C168.465 0.807483 169.008 0.772623 169.461 0.741933V0.904099C169.024 0.950671 168.637 1.05097 168.301 1.20549C167.965 1.36002 167.657 1.55335 167.376 1.78513C167.094 2.01692 166.833 2.27581 166.59 2.56181C166.348 2.8478 166.102 3.15279 165.852 3.47724C165.618 3.78664 165.301 4.21546 164.903 4.76405C164.505 5.31252 164.11 5.84977 163.72 6.37519C163.267 6.99328 162.79 7.65795 162.29 8.3687C162.743 9.09522 163.181 9.80634 163.602 10.5017C163.962 11.089 164.341 11.7072 164.739 12.356C165.138 13.0052 165.477 13.5615 165.758 14.0254C165.837 14.1489 165.946 14.3227 166.087 14.5469C166.227 14.771 166.376 14.9991 166.532 15.2309C166.688 15.4627 166.837 15.679 166.977 15.8798C167.118 16.0807 167.227 16.2199 167.305 16.2972C167.665 16.6835 168.055 16.9538 168.477 17.1087C168.899 17.2632 169.406 17.3865 170 17.4792V17.6649V17.6649Z" fill="white"/>
</svg>
