<svg width="1292" height="327" viewBox="0 0 1292 327" fill="none" xmlns="http://www.w3.org/2000/svg">
<path d="M409.842 96.4676C410.706 91.9577 413.719 90.9251 417.87 91.0515C424.486 91.2412 431.102 91.0725 437.718 91.1147C444.186 91.1568 445.092 92.0209 445.092 98.4275C445.113 123.063 445.092 147.678 445.113 172.314C445.135 198.678 468.122 212.903 492.037 201.291C502.973 195.98 506.681 186.307 506.744 174.948C506.892 150.312 506.786 125.698 506.807 101.062C506.807 91.1147 506.807 91.1147 517.048 91.1147C522.926 91.1147 528.805 91.2201 534.683 91.0726C539.213 90.9672 541.405 92.611 541.384 97.4791C541.236 124.686 541.637 151.893 541.11 179.078C540.541 208.919 522.21 230.5 492.627 236.084C470.735 240.215 449.686 237.812 431.502 223.44C418.691 213.303 412.476 199.499 410.874 183.462C410.579 180.554 410.2 177.666 409.863 174.758C409.842 148.689 409.842 122.579 409.842 96.4676Z" fill="#123D8A"/>
<path d="M1278.38 116.91C1254.76 83.1066 1199.66 78.9551 1169.22 108.733C1148.38 129.112 1144.04 154.485 1149.37 181.945C1154.07 206.391 1168.6 223.313 1191.95 231.933C1211.23 239.077 1231.08 239.646 1250.93 234.061C1261.52 231.111 1270.77 225.632 1278.53 217.666C1282.05 214.104 1282.3 210.901 1278.89 207.171C1276.15 204.178 1273.66 200.975 1271.09 197.856C1265.76 191.449 1264.94 191.281 1257.96 195.791C1241.21 206.538 1223.39 208.309 1204.68 202.302C1196.21 199.605 1189.17 194.758 1185.19 186.434C1182.41 180.596 1183.48 178.784 1189.99 178.784C1205.08 178.678 1220.12 178.741 1235.17 178.741H1257.25C1265.68 178.741 1274.15 178.784 1282.57 178.699C1287.27 178.594 1290.9 176.992 1291.25 171.513C1292.69 151.956 1289.8 133.284 1278.38 116.91ZM1243.99 151.387H1218.67C1209.16 151.387 1199.6 151.429 1190.08 151.387C1183 151.345 1182.01 149.996 1184.18 143.168C1188.41 129.828 1201.24 121.356 1218.25 121.188C1230.59 121.082 1241.93 124.033 1249.83 134.633C1250.61 135.666 1251.28 136.762 1251.9 137.9C1257.44 148.437 1255.73 151.387 1243.99 151.387Z" fill="#123D8A"/>
<path d="M569.176 168.226C569.176 149.301 569.155 130.376 569.176 111.452C569.176 102.074 569.576 101.315 578.299 98.2803C604.637 89.113 631.649 85.8887 659.041 91.7473C684.852 97.2687 698.716 113.812 699.58 140.871C700.528 170.417 699.959 200.027 700.086 229.594C700.107 233.83 698.042 235.494 693.954 235.452C686.79 235.347 679.626 235.22 672.462 235.494C667.09 235.705 665.446 233.345 665.488 228.224C665.636 204.157 665.551 180.09 665.551 156.024C665.551 153.642 665.593 151.24 665.425 148.858C664.329 132.42 655.438 123.253 639.045 121.968C629.479 121.23 619.976 122.199 610.579 124.223C605.67 125.276 603.71 127.911 603.752 133.116C603.942 164.158 603.857 195.222 603.836 226.264C603.836 235.178 603.584 235.431 594.439 235.431C588.371 235.431 582.302 235.22 576.255 235.494C570.946 235.726 569.07 233.408 569.091 228.308C569.26 208.288 569.197 188.267 569.176 168.226Z" fill="#123D8A"/>
<path d="M1031.2 176.023C1031.2 160.765 1031.02 145.528 1031.25 130.27C1031.61 106.688 1043.95 92.7584 1067.32 91.515C1087.65 90.4402 1108.09 91.1778 1128.47 91.1357C1132.6 91.1357 1134.37 93.3063 1134.28 97.4157C1134.18 103.843 1134.11 110.271 1134.3 116.699C1134.45 121.419 1132.43 123.295 1127.75 123.253C1112.14 123.126 1096.52 123.19 1080.91 123.211C1069.13 123.232 1065.97 126.456 1065.91 138.342C1065.89 141.651 1065.91 144.959 1065.91 148.268C1065.93 156.276 1066.54 156.887 1074.82 156.887C1088.96 156.908 1103.12 156.887 1117.26 156.887C1126.21 156.887 1126.44 157.14 1126.46 166.265C1126.46 171.049 1126.48 175.812 1126.46 180.596C1126.42 187.93 1125.45 188.962 1118.29 188.983C1103.6 189.004 1088.9 188.983 1074.21 189.004C1066.24 189.004 1065.93 189.341 1065.93 197.539C1065.93 208.013 1065.82 218.487 1065.97 228.961C1066.03 233.661 1064.07 235.62 1059.35 235.494C1052.38 235.304 1045.39 235.241 1038.41 235.515C1033.16 235.726 1031.14 233.576 1031.16 228.392C1031.29 210.943 1031.2 193.493 1031.2 176.023Z" fill="#123D8A"/>
<path d="M761.21 235.431C751.476 235.431 741.741 235.305 732.007 235.494C727.329 235.579 725.222 233.703 725.306 229.024C725.412 222.597 725.391 216.169 725.306 209.742C725.264 205.358 727.224 203.335 731.67 203.482C745.913 203.988 744.185 203.377 744.228 190.459C744.291 170.438 744.27 150.418 744.228 130.397C744.206 123.927 743.364 123.042 736.895 123.084C725.854 123.126 725.117 124.201 725.327 111.114C725.391 106.52 725.412 101.926 725.327 97.3316C725.264 93.2642 727.034 91.1357 731.206 91.1357C751.413 91.1568 771.598 91.1568 791.804 91.1357C796.208 91.1357 798.083 93.2643 797.978 97.6477C797.831 104.075 797.873 110.503 797.957 116.931C798.02 121.377 795.955 123.232 791.551 123.084C776.971 122.642 779.141 123.548 779.099 136.214C779.015 156.234 779.057 176.255 779.078 196.275C779.078 202.977 779.605 203.461 786.347 203.504C787.443 203.504 788.56 203.504 789.655 203.504C797.114 203.546 797.915 204.325 797.936 211.68C797.957 216.822 797.957 221.965 797.936 227.107C797.915 234.693 797.198 235.431 789.845 235.452C780.3 235.452 770.755 235.431 761.21 235.431Z" fill="#123D8A"/>
<path d="M952.655 163.209C952.655 151.998 952.549 140.807 952.697 129.596C952.76 124.875 950.843 122.852 946.165 123.042C932.912 123.548 933.734 123.168 933.755 110.313C933.755 105.908 933.797 101.504 933.755 97.0783C933.713 93.2849 935.419 91.1564 939.317 91.1564C959.692 91.1354 980.088 91.1354 1000.46 91.1564C1004.55 91.1564 1006.45 93.2006 1006.38 97.3312C1006.28 103.948 1006.32 110.545 1006.36 117.162C1006.38 121.314 1004.45 123.21 1000.27 123.063C985.061 122.494 987.589 123.864 987.526 136.445C987.4 156.465 987.61 176.486 987.421 196.506C987.379 201.754 989.191 203.651 994.479 203.587C1006.36 203.44 1006.36 203.651 1006.36 215.768C1006.36 220.362 1006.34 224.957 1006.36 229.551C1006.38 233.323 1004.74 235.431 1000.78 235.431C980.215 235.431 959.65 235.409 939.085 235.431C935.335 235.431 933.818 233.323 933.797 229.867C933.755 223.081 933.797 216.274 933.776 209.488C933.755 205.4 935.63 203.608 939.802 203.44C952.676 202.934 952.676 202.829 952.676 189.657C952.655 180.827 952.655 172.018 952.655 163.209Z" fill="#123D8A"/>
<path d="M822.798 148.627C822.798 132.083 822.777 115.54 822.819 99.0178C822.84 92.0423 823.767 91.1572 830.868 91.1361C837.295 91.094 843.721 91.094 850.169 91.1361C856.469 91.1993 857.501 92.2109 857.501 98.5543C857.522 126.857 857.501 155.16 857.522 183.462C857.522 198.256 862.516 203.293 877.349 203.377C888.748 203.441 900.126 203.525 911.525 203.335C916.372 203.251 918.71 204.853 918.521 209.974C918.289 216.591 918.436 223.208 918.458 229.825C918.458 233.345 916.962 235.516 913.253 235.431C893.974 235.031 874.652 236.801 855.436 234.42C835.567 231.954 824.063 219.499 823.409 199.373C822.862 182.493 823.304 165.57 823.304 148.669C823.135 148.627 822.967 148.627 822.798 148.627Z" fill="#123D8A"/>
<path d="M174.866 160.491C218.969 160.491 254.722 124.731 254.722 80.6194C254.722 36.5077 218.969 0.748047 174.866 0.748047C130.762 0.748047 95.0093 36.5077 95.0093 80.6194C95.0093 124.731 130.762 160.491 174.866 160.491Z" fill="#F2652C"/>
<path d="M80.7656 326.535C124.869 326.535 160.622 290.775 160.622 246.663C160.622 202.552 124.869 166.792 80.7656 166.792C36.6621 166.792 0.90918 202.552 0.90918 246.663C0.90918 290.775 36.6621 326.535 80.7656 326.535Z" fill="#F2652C"/>
<path d="M268.965 326.535C313.069 326.535 348.822 290.775 348.822 246.663C348.822 202.552 313.069 166.792 268.965 166.792C224.862 166.792 189.109 202.552 189.109 246.663C189.109 290.775 224.862 326.535 268.965 326.535Z" fill="#F2652C"/>
</svg>
