<svg width="217" height="53" viewBox="0 0 217 53" fill="none" xmlns="http://www.w3.org/2000/svg">
<path d="M28.69 25.77C35.7261 25.77 41.43 20.0661 41.43 13.03C41.43 5.99389 35.7261 0.290009 28.69 0.290009C21.6539 0.290009 15.95 5.99389 15.95 13.03C15.95 20.0661 21.6539 25.77 28.69 25.77Z" fill="#F15730"/>
<path d="M12.95 52.25C19.9861 52.25 25.69 46.5461 25.69 39.51C25.69 32.4739 19.9861 26.77 12.95 26.77C5.91388 26.77 0.209991 32.4739 0.209991 39.51C0.209991 46.5461 5.91388 52.25 12.95 52.25Z" fill="#F15730"/>
<path d="M44.44 52.25C51.4761 52.25 57.18 46.5461 57.18 39.51C57.18 32.4739 51.4761 26.77 44.44 26.77C37.4039 26.77 31.7 32.4739 31.7 39.51C31.7 46.5461 37.4039 52.25 44.44 52.25Z" fill="#F15730"/>
<path d="M74.13 41.32C74.29 41.51 74.37 41.74 74.37 42.01C74.37 42.28 74.28 42.51 74.11 42.71C73.94 42.91 73.71 43.06 73.43 43.17C73.15 43.28 72.84 43.33 72.51 43.33C72.21 43.33 71.91 43.28 71.61 43.19C71.31 43.1 71.04 42.96 70.79 42.78L71.02 42.3C71.22 42.46 71.44 42.57 71.69 42.65C71.94 42.73 72.19 42.77 72.44 42.77C72.8 42.77 73.11 42.69 73.35 42.54C73.6 42.39 73.72 42.18 73.72 41.91C73.72 41.68 73.63 41.5 73.44 41.38C73.25 41.26 72.99 41.2 72.66 41.2H71.65V40.67H72.62C72.91 40.67 73.14 40.61 73.3 40.49C73.46 40.37 73.54 40.21 73.54 39.99C73.54 39.75 73.43 39.56 73.22 39.43C73.01 39.29 72.74 39.22 72.42 39.22C72.21 39.22 71.99 39.25 71.77 39.31C71.55 39.37 71.34 39.46 71.15 39.58L70.94 39.05C71.17 38.92 71.41 38.82 71.67 38.76C71.93 38.7 72.18 38.66 72.44 38.66C72.76 38.66 73.05 38.71 73.32 38.81C73.59 38.91 73.8 39.05 73.96 39.24C74.12 39.43 74.2 39.65 74.2 39.91C74.2 40.14 74.14 40.34 74.01 40.51C73.88 40.68 73.71 40.81 73.48 40.9C73.75 40.99 73.97 41.12 74.13 41.32Z" fill="#1C4689"/>
<path d="M78.85 42.73V44.07H78.27V43.27H75.4V44.07H74.81V42.73H74.99C75.21 42.72 75.36 42.56 75.44 42.26C75.52 41.96 75.58 41.54 75.61 40.99L75.66 39.83H78.33V42.72H78.85V42.73ZM76.07 42.12C76.02 42.4 75.92 42.61 75.77 42.73H77.7V40.38H76.21L76.18 41.04C76.16 41.48 76.12 41.84 76.07 42.12Z" fill="#1C4689"/>
<path d="M80.21 43.09C79.94 42.94 79.72 42.73 79.57 42.46C79.42 42.19 79.34 41.89 79.34 41.56C79.34 41.22 79.42 40.92 79.57 40.65C79.72 40.38 79.94 40.18 80.21 40.03C80.48 39.88 80.79 39.81 81.13 39.81C81.47 39.81 81.78 39.88 82.05 40.03C82.32 40.18 82.53 40.39 82.69 40.65C82.84 40.92 82.92 41.22 82.92 41.56C82.92 41.9 82.84 42.2 82.69 42.46C82.54 42.73 82.32 42.93 82.05 43.09C81.78 43.24 81.47 43.32 81.13 43.32C80.79 43.32 80.48 43.24 80.21 43.09ZM81.72 42.62C81.9 42.52 82.03 42.38 82.13 42.19C82.23 42.01 82.28 41.8 82.28 41.56C82.28 41.32 82.23 41.11 82.13 40.93C82.03 40.75 81.89 40.6 81.72 40.51C81.54 40.41 81.35 40.36 81.13 40.36C80.91 40.36 80.71 40.41 80.54 40.51C80.36 40.61 80.23 40.75 80.12 40.93C80.02 41.11 79.97 41.32 79.97 41.56C79.97 41.8 80.02 42.01 80.12 42.19C80.22 42.37 80.36 42.52 80.54 42.62C80.72 42.72 80.91 42.77 81.13 42.77C81.35 42.77 81.55 42.72 81.72 42.62Z" fill="#1C4689"/>
<path d="M86.53 40.03C86.79 40.18 87 40.38 87.15 40.65C87.3 40.91 87.37 41.22 87.37 41.56C87.37 41.91 87.3 42.21 87.15 42.48C87 42.75 86.79 42.95 86.53 43.1C86.27 43.25 85.97 43.32 85.63 43.32C85.38 43.32 85.16 43.27 84.95 43.18C84.74 43.08 84.57 42.95 84.43 42.76V44.54H83.81V39.84H84.41V40.38C84.55 40.19 84.72 40.05 84.94 39.95C85.15 39.85 85.39 39.8 85.64 39.8C85.97 39.81 86.27 39.88 86.53 40.03ZM86.18 42.62C86.36 42.52 86.49 42.38 86.6 42.19C86.7 42.01 86.75 41.8 86.75 41.56C86.75 41.32 86.7 41.11 86.6 40.93C86.5 40.75 86.36 40.6 86.18 40.51C86.01 40.41 85.81 40.36 85.59 40.36C85.37 40.36 85.18 40.41 85 40.51C84.82 40.61 84.69 40.75 84.58 40.93C84.48 41.11 84.43 41.32 84.43 41.56C84.43 41.8 84.48 42.01 84.58 42.19C84.68 42.37 84.82 42.52 85 42.62C85.18 42.72 85.37 42.77 85.59 42.77C85.81 42.77 86.01 42.72 86.18 42.62Z" fill="#1C4689"/>
<path d="M88.83 43.09C88.56 42.94 88.34 42.73 88.19 42.46C88.04 42.19 87.96 41.89 87.96 41.56C87.96 41.22 88.04 40.92 88.19 40.65C88.34 40.38 88.56 40.18 88.83 40.03C89.1 39.88 89.41 39.81 89.75 39.81C90.09 39.81 90.4 39.88 90.67 40.03C90.94 40.18 91.15 40.39 91.31 40.65C91.46 40.92 91.54 41.22 91.54 41.56C91.54 41.9 91.46 42.2 91.31 42.46C91.16 42.73 90.94 42.93 90.67 43.09C90.4 43.24 90.09 43.32 89.75 43.32C89.41 43.32 89.1 43.24 88.83 43.09ZM90.35 42.62C90.53 42.52 90.66 42.38 90.76 42.19C90.86 42.01 90.91 41.8 90.91 41.56C90.91 41.32 90.86 41.11 90.76 40.93C90.66 40.75 90.52 40.6 90.35 40.51C90.17 40.41 89.98 40.36 89.76 40.36C89.54 40.36 89.34 40.41 89.17 40.51C88.99 40.61 88.86 40.75 88.75 40.93C88.65 41.11 88.6 41.32 88.6 41.56C88.6 41.8 88.65 42.01 88.75 42.19C88.85 42.37 88.99 42.52 89.17 42.62C89.35 42.72 89.54 42.77 89.76 42.77C89.97 42.77 90.17 42.72 90.35 42.62Z" fill="#1C4689"/>
<path d="M95.45 42.33C95.45 42.63 95.34 42.87 95.11 43.03C94.88 43.19 94.54 43.28 94.09 43.28H92.44V39.84H94.04C94.45 39.84 94.76 39.92 94.99 40.07C95.22 40.22 95.33 40.44 95.33 40.72C95.33 40.9 95.28 41.06 95.18 41.19C95.08 41.32 94.95 41.42 94.77 41.49C95.22 41.61 95.45 41.89 95.45 42.33ZM93.05 41.32H93.98C94.22 41.32 94.4 41.28 94.52 41.19C94.64 41.1 94.7 40.98 94.7 40.81C94.7 40.48 94.46 40.32 93.97 40.32H93.04V41.32H93.05ZM94.63 42.68C94.76 42.6 94.82 42.47 94.82 42.3C94.82 42.12 94.76 41.99 94.64 41.9C94.52 41.81 94.33 41.77 94.08 41.77H93.04V42.8H94.04C94.31 42.8 94.5 42.76 94.63 42.68Z" fill="#1C4689"/>
<path d="M99.01 41.31C99.24 41.5 99.35 41.78 99.35 42.13C99.35 42.5 99.23 42.79 98.98 42.99C98.73 43.19 98.38 43.29 97.91 43.28L96.42 43.27V39.83H97.04V41L98.01 41.01C98.45 41.01 98.78 41.11 99.01 41.31ZM98.5 42.64C98.64 42.52 98.72 42.35 98.72 42.12C98.72 41.9 98.65 41.73 98.51 41.63C98.37 41.53 98.15 41.47 97.86 41.47L97.04 41.46V42.81L97.86 42.82C98.14 42.82 98.35 42.76 98.5 42.64Z" fill="#1C4689"/>
<path d="M103.24 41.77H100.45C100.49 42.07 100.62 42.32 100.85 42.5C101.08 42.68 101.36 42.78 101.7 42.78C102.11 42.78 102.44 42.64 102.69 42.36L103.03 42.76C102.87 42.94 102.68 43.08 102.45 43.18C102.22 43.28 101.96 43.32 101.67 43.32C101.31 43.32 100.98 43.25 100.7 43.1C100.42 42.95 100.2 42.74 100.05 42.47C99.9 42.2 99.82 41.9 99.82 41.56C99.82 41.23 99.89 40.93 100.04 40.66C100.19 40.39 100.39 40.18 100.66 40.03C100.92 39.88 101.22 39.81 101.55 39.81C101.88 39.81 102.17 39.88 102.43 40.03C102.69 40.18 102.89 40.39 103.03 40.66C103.17 40.93 103.25 41.24 103.25 41.58C103.26 41.63 103.25 41.69 103.24 41.77ZM100.81 40.61C100.61 40.79 100.49 41.03 100.46 41.32H102.67C102.64 41.03 102.52 40.79 102.32 40.61C102.12 40.43 101.87 40.33 101.57 40.33C101.26 40.33 101.01 40.42 100.81 40.61Z" fill="#1C4689"/>
<path d="M105.36 41.28H111.85V41.71H105.36V41.28Z" fill="#1C4689"/>
<path d="M116.14 40.03C116.42 40.18 116.64 40.39 116.8 40.66C116.96 40.93 117.04 41.23 117.04 41.56C117.04 41.9 116.96 42.2 116.8 42.47C116.64 42.74 116.42 42.95 116.14 43.1C115.86 43.25 115.54 43.33 115.19 43.33C114.89 43.33 114.61 43.28 114.37 43.19C114.13 43.09 113.92 42.96 113.75 42.77L114.11 42.41C114.39 42.68 114.74 42.82 115.16 42.82C115.5 42.82 115.78 42.72 116.02 42.53C116.26 42.34 116.4 42.09 116.45 41.77H114.72V41.31H116.43C116.37 41.01 116.23 40.77 116 40.59C115.77 40.41 115.49 40.31 115.16 40.31C114.74 40.31 114.39 40.45 114.11 40.73L113.75 40.37C113.92 40.18 114.13 40.04 114.37 39.95C114.62 39.85 114.89 39.81 115.19 39.81C115.54 39.8 115.86 39.88 116.14 40.03Z" fill="#1C4689"/>
<path d="M120.36 40.39H119.1V43.28H118.48V40.39H117.22V39.85H120.36V40.39Z" fill="#1C4689"/>
<path d="M121.4 43.09C121.13 42.94 120.91 42.73 120.76 42.46C120.61 42.19 120.53 41.89 120.53 41.56C120.53 41.22 120.61 40.92 120.76 40.65C120.91 40.38 121.13 40.18 121.4 40.03C121.67 39.88 121.98 39.81 122.32 39.81C122.66 39.81 122.97 39.88 123.24 40.03C123.51 40.18 123.72 40.39 123.88 40.65C124.03 40.92 124.11 41.22 124.11 41.56C124.11 41.9 124.03 42.2 123.88 42.46C123.73 42.73 123.52 42.93 123.24 43.09C122.97 43.24 122.66 43.32 122.32 43.32C121.98 43.32 121.67 43.24 121.4 43.09ZM122.91 42.62C123.09 42.52 123.22 42.38 123.32 42.19C123.42 42.01 123.47 41.8 123.47 41.56C123.47 41.32 123.42 41.11 123.32 40.93C123.22 40.75 123.08 40.6 122.91 40.51C122.73 40.41 122.54 40.36 122.32 40.36C122.1 40.36 121.9 40.41 121.73 40.51C121.55 40.61 121.42 40.75 121.31 40.93C121.21 41.11 121.16 41.32 121.16 41.56C121.16 41.8 121.21 42.01 121.31 42.19C121.41 42.37 121.55 42.52 121.73 42.62C121.91 42.72 122.1 42.77 122.32 42.77C122.54 42.77 122.74 42.72 122.91 42.62Z" fill="#1C4689"/>
<path d="M127.31 43.09C127.04 42.94 126.82 42.73 126.66 42.46C126.5 42.19 126.43 41.89 126.43 41.56C126.43 41.22 126.51 40.92 126.66 40.65C126.82 40.38 127.03 40.18 127.31 40.03C127.58 39.88 127.9 39.81 128.25 39.81C128.56 39.81 128.84 39.87 129.08 40C129.32 40.13 129.51 40.31 129.65 40.55L129.18 40.85C129.07 40.69 128.94 40.56 128.78 40.48C128.62 40.4 128.44 40.36 128.25 40.36C128.03 40.36 127.82 40.41 127.64 40.51C127.46 40.61 127.32 40.75 127.22 40.93C127.12 41.11 127.07 41.32 127.07 41.56C127.07 41.8 127.12 42.02 127.22 42.2C127.32 42.38 127.46 42.53 127.64 42.63C127.82 42.73 128.02 42.78 128.25 42.78C128.44 42.78 128.62 42.74 128.78 42.66C128.94 42.58 129.07 42.45 129.18 42.29L129.65 42.59C129.52 42.83 129.33 43.01 129.08 43.14C128.84 43.27 128.56 43.33 128.25 43.33C127.9 43.32 127.59 43.24 127.31 43.09Z" fill="#1C4689"/>
<path d="M132.97 40.39H131.71V43.28H131.09V40.39H129.83V39.85H132.97V40.39Z" fill="#1C4689"/>
<path d="M133.61 39.84H134.23V42.34L136.34 39.84H136.9V43.28H136.28V40.78L134.18 43.28H133.61V39.84Z" fill="#1C4689"/>
<path d="M141.06 39.84V43.28H140.44V40.39H138.96L138.92 41.16C138.9 41.62 138.86 42.01 138.8 42.32C138.74 42.63 138.64 42.88 138.5 43.06C138.36 43.25 138.17 43.34 137.92 43.34C137.81 43.34 137.68 43.32 137.54 43.28L137.58 42.75C137.64 42.76 137.69 42.77 137.74 42.77C137.91 42.77 138.04 42.69 138.13 42.54C138.22 42.39 138.27 42.21 138.3 42C138.33 41.79 138.35 41.5 138.37 41.11L138.43 39.84H141.06Z" fill="#1C4689"/>
<path d="M144.86 41.31C145.09 41.5 145.2 41.78 145.2 42.13C145.2 42.5 145.08 42.79 144.83 42.99C144.58 43.19 144.23 43.29 143.76 43.28L142.27 43.27V39.83H142.89V41L143.86 41.01C144.29 41.01 144.63 41.11 144.86 41.31ZM144.35 42.64C144.49 42.52 144.57 42.35 144.57 42.12C144.57 41.9 144.5 41.73 144.36 41.63C144.22 41.53 144 41.47 143.71 41.47L142.89 41.46V42.81L143.71 42.82C143.99 42.82 144.2 42.76 144.35 42.64Z" fill="#1C4689"/>
<path d="M150.87 41.83H150.2V43.28H149.58V41.83H148.91L147.96 43.28H147.22L148.4 41.5L147.31 39.84H147.97L148.9 41.29H149.57V39.84H150.19V41.29H150.86L151.79 39.84H152.46L151.37 41.51L152.55 43.28H151.81L150.87 41.83Z" fill="#1C4689"/>
<path d="M153.25 39.84H153.87V42.34L155.98 39.84H156.54V43.28H155.92V40.78L153.82 43.28H153.25V39.84Z" fill="#1C4689"/>
<path d="M160.09 41.78C160.22 41.91 160.28 42.08 160.28 42.28C160.28 42.48 160.21 42.66 160.07 42.82C159.93 42.98 159.74 43.1 159.5 43.19C159.26 43.28 158.98 43.32 158.68 43.32C158.42 43.32 158.18 43.29 157.93 43.22C157.69 43.15 157.47 43.06 157.28 42.93L157.47 42.46C157.63 42.56 157.82 42.64 158.03 42.7C158.24 42.76 158.46 42.79 158.67 42.79C158.96 42.79 159.2 42.74 159.37 42.64C159.55 42.54 159.63 42.4 159.63 42.23C159.63 42.07 159.56 41.95 159.42 41.86C159.28 41.77 159.08 41.73 158.83 41.73H158.2V41.28H158.78C159.01 41.28 159.2 41.24 159.33 41.16C159.46 41.08 159.53 40.97 159.53 40.82C159.53 40.66 159.45 40.54 159.29 40.46C159.13 40.37 158.92 40.33 158.65 40.33C158.31 40.33 157.95 40.42 157.57 40.6L157.4 40.12C157.82 39.91 158.26 39.8 158.72 39.8C159 39.8 159.25 39.84 159.47 39.92C159.69 40 159.86 40.11 159.99 40.25C160.12 40.39 160.18 40.55 160.18 40.74C160.18 40.91 160.12 41.06 160.01 41.19C159.9 41.32 159.75 41.43 159.56 41.49C159.78 41.55 159.96 41.65 160.09 41.78Z" fill="#1C4689"/>
<path d="M161.22 39.84H161.84V41.3H163.8V39.84H164.42V43.28H163.8V41.84H161.84V43.28H161.22V39.84Z" fill="#1C4689"/>
<path d="M165.64 39.84H166.26V42.34L168.37 39.84H168.93V43.28H168.31V40.78L166.21 43.28H165.64V39.84Z" fill="#1C4689"/>
<path d="M169.97 43.19C169.88 43.11 169.84 43 169.84 42.87C169.84 42.74 169.88 42.64 169.97 42.56C170.06 42.48 170.16 42.43 170.28 42.43C170.4 42.43 170.5 42.47 170.58 42.55C170.66 42.63 170.7 42.74 170.7 42.87C170.7 43 170.66 43.11 170.57 43.19C170.49 43.27 170.39 43.32 170.27 43.32C170.16 43.32 170.05 43.28 169.97 43.19Z" fill="#1C4689"/>
<path d="M70.79 9.27998C70.93 8.52998 71.43 8.36 72.12 8.39C73.21 8.42 74.31 8.38998 75.4 8.39998C76.47 8.40998 76.62 8.54997 76.62 9.60997C76.62 13.68 76.62 17.76 76.62 21.83C76.63 26.19 80.43 28.54 84.38 26.62C86.19 25.74 86.8 24.14 86.81 22.26C86.83 18.19 86.82 14.11 86.82 10.04C86.82 8.38999 86.82 8.39 88.51 8.39C89.48 8.39 90.46 8.40999 91.43 8.37999C92.18 8.35999 92.54 8.63999 92.54 9.43999C92.51 13.94 92.58 18.44 92.49 22.94C92.39 27.87 89.37 31.44 84.47 32.37C80.85 33.05 77.37 32.66 74.36 30.28C72.24 28.6 71.21 26.32 70.95 23.67C70.9 23.19 70.84 22.71 70.78 22.23C70.79 17.92 70.79 13.6 70.79 9.27998Z" fill="#1C4689"/>
<path d="M214.45 12.66C210.54 7.07 201.43 6.37999 196.39 11.31C192.94 14.68 192.23 18.88 193.11 23.42C193.89 27.46 196.29 30.26 200.15 31.69C203.34 32.87 206.62 32.96 209.91 32.04C211.66 31.55 213.19 30.65 214.48 29.33C215.06 28.74 215.1 28.21 214.54 27.59C214.09 27.09 213.68 26.56 213.25 26.05C212.37 24.99 212.23 24.96 211.08 25.71C208.31 27.49 205.36 27.78 202.27 26.79C200.87 26.35 199.71 25.54 199.05 24.17C198.59 23.2 198.77 22.9 199.85 22.9C202.35 22.88 204.83 22.89 207.32 22.89H210.97C212.36 22.89 213.77 22.9 215.16 22.88C215.94 22.86 216.54 22.6 216.6 21.69C216.81 18.46 216.34 15.37 214.45 12.66ZM208.76 18.36H204.57C203 18.36 201.42 18.37 199.84 18.36C198.67 18.35 198.51 18.13 198.87 17C199.57 14.79 201.69 13.39 204.5 13.37C206.54 13.35 208.42 13.84 209.72 15.59C209.85 15.76 209.96 15.94 210.06 16.13C210.98 17.88 210.7 18.36 208.76 18.36Z" fill="#1C4689"/>
<path d="M97.15 21.15C97.15 18.02 97.15 14.89 97.15 11.76C97.15 10.21 97.22 10.08 98.66 9.57999C103.02 8.05999 107.48 7.53001 112.02 8.50001C116.29 9.41001 118.58 12.15 118.73 16.62C118.89 21.51 118.79 26.4 118.81 31.29C118.81 31.99 118.47 32.27 117.8 32.26C116.62 32.24 115.43 32.22 114.25 32.27C113.36 32.3 113.09 31.91 113.1 31.07C113.13 27.09 113.11 23.11 113.11 19.13C113.11 18.74 113.12 18.34 113.09 17.95C112.91 15.23 111.44 13.71 108.73 13.5C107.15 13.38 105.58 13.54 104.02 13.87C103.21 14.05 102.88 14.48 102.89 15.34C102.92 20.47 102.91 25.61 102.91 30.74C102.91 32.21 102.87 32.25 101.35 32.26C100.35 32.26 99.34 32.23 98.34 32.27C97.46 32.31 97.15 31.92 97.16 31.08C97.16 27.77 97.15 24.46 97.15 21.15Z" fill="#1C4689"/>
<path d="M173.56 22.44C173.56 19.92 173.53 17.4 173.57 14.87C173.63 10.97 175.67 8.66999 179.54 8.45999C182.9 8.27999 186.28 8.39999 189.66 8.39999C190.34 8.39999 190.63 8.76 190.62 9.44C190.6 10.5 190.59 11.57 190.62 12.63C190.64 13.41 190.31 13.72 189.54 13.71C186.96 13.69 184.37 13.7 181.79 13.7C179.84 13.7 179.32 14.24 179.31 16.2C179.31 16.75 179.31 17.29 179.31 17.84C179.31 19.17 179.41 19.26 180.78 19.27C183.12 19.27 185.46 19.27 187.8 19.27C189.28 19.27 189.32 19.31 189.32 20.82C189.32 21.61 189.32 22.4 189.32 23.19C189.31 24.4 189.15 24.57 187.97 24.58C185.54 24.58 183.11 24.58 180.68 24.58C179.36 24.58 179.31 24.63 179.31 25.99C179.31 27.72 179.29 29.45 179.32 31.19C179.33 31.97 179 32.29 178.23 32.27C177.08 32.24 175.92 32.23 174.77 32.27C173.9 32.3 173.57 31.95 173.57 31.09C173.58 28.21 173.56 25.33 173.56 22.44Z" fill="#1C4689"/>
<path d="M128.91 32.26C127.3 32.26 125.69 32.24 124.08 32.27C123.3 32.28 122.96 31.97 122.97 31.2C122.99 30.14 122.98 29.07 122.97 28.01C122.96 27.29 123.29 26.95 124.02 26.98C126.38 27.06 126.09 26.96 126.1 24.83C126.11 21.52 126.11 18.21 126.1 14.9C126.1 13.83 125.96 13.68 124.89 13.69C123.07 13.7 122.94 13.87 122.98 11.71C122.99 10.95 122.99 10.19 122.98 9.42999C122.97 8.75999 123.26 8.41 123.95 8.41C127.29 8.41 130.63 8.41 133.97 8.41C134.7 8.41 135.01 8.75999 134.99 9.48999C134.97 10.55 134.97 11.62 134.99 12.68C135 13.42 134.66 13.72 133.93 13.7C131.52 13.63 131.88 13.78 131.87 15.87C131.86 19.18 131.86 22.49 131.87 25.8C131.87 26.91 131.96 26.99 133.07 27C133.25 27 133.43 27 133.62 27C134.85 27.01 134.99 27.13 134.99 28.35C134.99 29.2 134.99 30.05 134.99 30.9C134.99 32.15 134.87 32.28 133.65 32.28C132.07 32.27 130.49 32.26 128.91 32.26Z" fill="#1C4689"/>
<path d="M160.57 20.32C160.57 18.47 160.55 16.61 160.58 14.76C160.59 13.98 160.27 13.65 159.5 13.67C157.31 13.75 157.44 13.69 157.45 11.56C157.45 10.83 157.46 10.1 157.45 9.37C157.44 8.74 157.73 8.39001 158.37 8.39001C161.74 8.39001 165.11 8.39001 168.48 8.39001C169.16 8.39001 169.47 8.73 169.46 9.41C169.44 10.5 169.45 11.6 169.46 12.69C169.46 13.38 169.14 13.69 168.45 13.67C165.94 13.57 166.35 13.8 166.34 15.88C166.32 19.19 166.35 22.5 166.32 25.81C166.31 26.68 166.61 26.99 167.49 26.98C169.46 26.96 169.46 26.99 169.46 29C169.46 29.76 169.46 30.52 169.46 31.28C169.46 31.9 169.19 32.25 168.54 32.25C165.14 32.25 161.74 32.25 158.33 32.25C157.71 32.25 157.46 31.9 157.45 31.33C157.44 30.21 157.45 29.08 157.45 27.96C157.45 27.28 157.76 26.99 158.45 26.96C160.58 26.88 160.58 26.86 160.58 24.68C160.57 23.23 160.57 21.78 160.57 20.32Z" fill="#1C4689"/>
<path d="M139.09 17.91C139.09 15.17 139.09 12.44 139.09 9.7C139.09 8.55 139.25 8.39999 140.42 8.39999C141.48 8.38999 142.55 8.38999 143.61 8.39999C144.65 8.40999 144.82 8.58 144.82 9.63C144.82 14.31 144.82 18.99 144.82 23.67C144.82 26.12 145.65 26.95 148.1 26.96C149.98 26.97 151.87 26.99 153.75 26.95C154.55 26.94 154.94 27.2 154.91 28.05C154.87 29.14 154.9 30.24 154.9 31.33C154.9 31.91 154.65 32.27 154.04 32.26C150.85 32.19 147.65 32.49 144.48 32.09C141.2 31.68 139.29 29.62 139.18 26.29C139.09 23.5 139.16 20.7 139.16 17.9C139.15 17.91 139.12 17.91 139.09 17.91Z" fill="#1C4689"/>
</svg>
